[img]http://img121.imageshack.us/img121/3642/predators2010movieposte.jpg[/img]
[code]
  Predators 2010 720p R5 NEW LiNE XViD - IMAGiNE
********************************************************************************************************************




Ripper ...........:IMAGiNE                                  IMDB Rating.......:6.9/10                           
Video Codec.......:XVID                                     Release Date......:09/24/10
Audio Codec.......:MP3                                      Theatre Date......:07/09/10
Audio Bitrate.....:224                                      Runtime...........:1h 42mn
Subtitles.........:English                                  Language..........:ENGLISH
Resolution........:1280 x 544                               IMDb URL..........:http://www.imdb.com/title/tt1424381/


DETAILS:

Video
Format                           : MPEG-4 Visual
Format profile                   : Streaming Video@L1
Format settings, BVOP            : Yes
Format settings, QPel            : No
Format settings, GMC             : No warppoints
Format settings, Matrix          : Default
Muxing mode                      : Packed bitstream
Codec ID                         : XVID
Codec ID/Hint                    : XviD
Duration                         : 1h 42mn
Bit rate                         : 2 708 Kbps
Width                            : 1 280 pixels
Height                           : 544 pixels
Display aspect ratio             : 2.35
Frame rate                       : 25.000 fps
Resolution                       : 24 bits
Colorimetry                      : 4:2:0
Scan type                        : Progressive
Bits/(Pixel*Frame)               : 0.156
Stream size                      : 1.94 GiB (92%)
Writing library                  : XviD 50

Audio
Format                           : MPEG Audio
Format version                   : Version 1
Format profile                   : Layer 3
Codec ID                         : 55
Codec ID/Hint                    : MP3
Duration                         : 1h 42mn
Bit rate mode                    : Constant
Bit rate                         : 224 Kbps
Channel(s)                       : 2 channels
Sampling rate                    : 48.0 KHz
Resolution                       : 16 bits
Stream size                      : 164 MiB (8%)
Alignment                        : Split accross interleaves
Interleave, duration             : 40 ms (1.00 video frame)
Interleave, preload duration     : 500 ms




SOURCES:

VIDEO: DVD9 R5 from a good mate TY bro... 
AUDIO: LiNE from LAP... Thanks Mates 

NOTES:

IMAGiNE bringing you another release..... Predators 2010

Here's we go with a nice R5 720p of Predators for you...
First of thanks to our russian friend for the video and LAP for the audio. This time we did a few
different tweaks to the video to brighten it up a bit more, our normal filters we're used. Wrote
an avs script to crop, resize, white balance, and a slight sharpening script. Then on to the
RGB colors, we only slightly changed these. Audio is from the LAP release so hats off to them on the better audio source this time... 

Enjoy folks 
[/code]
Screens:
[img]http://img819.imageshack.us/img819/3747/54758897.png[/img]
[img]http://img706.imageshack.us/img706/4181/34721275.png[/img]
[img]http://img18.imageshack.us/img18/4795/22846778.png[/img]
[img]http://img696.imageshack.us/img696/7360/61191489.png[/img]
[img]http://img27.imageshack.us/img27/2678/13083491o.png[/img]
